<?xml version="1.0"?>
<svg xmlns="http://www.w3.org/2000/svg" xmlns:xlink="http://www.w3.org/1999/xlink" version="1.1" id="Capa_1" x="0px" y="0px" viewBox="0 0 512 512" style="enable-background:new 0 0 512 512;" xml:space="preserve" width="512px" height="512px" class=""><g><g>
	<g>
		<path d="M506.438,424.521L296.354,44.344c-7.854-14.198-22.813-23.01-39.021-23.01h-2.667c-16.208,0-31.166,8.813-39.021,23.021    L5.563,424.521C1.917,431.115,0,438.562,0,446.083c0,24.583,20,44.583,44.583,44.583h422.833c24.583,0,44.583-20,44.583-44.583    C512,438.562,510.083,431.115,506.438,424.521z M338.771,294.937l-128,149.333c-2.104,2.438-5.083,3.729-8.104,3.729    c-1.896,0-3.813-0.5-5.521-1.542c-4.458-2.708-6.313-8.24-4.375-13.083l36.813-92.042h-48.25c-3.479,0-6.729-1.688-8.729-4.521    c-1.979-2.833-2.479-6.469-1.313-9.729l53.333-149.333c1.521-4.25,5.542-7.083,10.042-7.083h74.667    c3.542,0,6.854,1.76,8.833,4.688c1.979,2.927,2.375,6.656,1.063,9.938l-36.813,92.042h48.25c4.167,0,7.958,2.427,9.688,6.208    C342.104,287.323,341.479,291.781,338.771,294.937z" data-original="#000000" class="active-path" data-old_color="#000000" fill="#D73434"/>
	</g>
</g></g> </svg>
