<svg xmlns="http://www.w3.org/2000/svg" xmlns:xlink="http://www.w3.org/1999/xlink" version="1.1" x="0px" y="0px" viewBox="0 0 64 80" style="enable-background:new 0 0 64 64;" xml:space="preserve"><path d="M37.788,13.272C37.927,12.865,38,12.436,38,12c0-2.206-1.794-4-4-4s-4,1.794-4,4c0,0.436,0.073,0.865,0.212,1.272  C28.915,13.812,28,15.093,28,16.583V21c0,0.379,0.214,0.725,0.553,0.895L30,22.618V28c0,0.553,0.448,1,1,1h6c0.552,0,1-0.447,1-1  v-5.382l1.447-0.724C39.786,21.725,40,21.379,40,21v-4.417C40,15.093,39.085,13.812,37.788,13.272z M38,20.382l-1.447,0.724  C36.214,21.275,36,21.621,36,22v5h-4v-5c0-0.379-0.214-0.725-0.553-0.895L30,20.382v-3.799C30,15.71,30.71,15,31.583,15h0.195  c0.395,0,0.753-0.232,0.914-0.594c0.161-0.36,0.094-0.782-0.17-1.075C32.185,12.957,32,12.485,32,12c0-1.103,0.897-2,2-2  s2,0.897,2,2c0,0.485-0.185,0.957-0.521,1.331c-0.264,0.293-0.331,0.715-0.17,1.075C35.469,14.768,35.827,15,36.222,15h0.195  C37.29,15,38,15.71,38,16.583V20.382z"/><rect x="33" y="16" width="2" height="3"/><path d="M52.788,26.272C52.927,25.865,53,25.436,53,25c0-2.206-1.794-4-4-4s-4,1.794-4,4c0,0.436,0.073,0.865,0.212,1.272  C43.915,26.812,43,28.093,43,29.583V34c0,0.379,0.214,0.725,0.553,0.895L45,35.618V41c0,0.553,0.448,1,1,1h6c0.552,0,1-0.447,1-1  v-5.382l1.447-0.724C54.786,34.725,55,34.379,55,34v-4.417C55,28.093,54.085,26.812,52.788,26.272z M53,33.382l-1.447,0.724  C51.214,34.275,51,34.621,51,35v5h-4v-5c0-0.379-0.214-0.725-0.553-0.895L45,33.382v-3.799C45,28.71,45.71,28,46.583,28h0.195  c0.395,0,0.753-0.232,0.914-0.594c0.161-0.36,0.094-0.782-0.17-1.075C47.185,25.957,47,25.485,47,25c0-1.103,0.897-2,2-2  s2,0.897,2,2c0,0.485-0.185,0.957-0.521,1.331c-0.264,0.293-0.331,0.715-0.17,1.075C50.469,27.768,50.827,28,51.222,28h0.195  C52.29,28,53,28.71,53,29.583V33.382z"/><rect x="48" y="29" width="2" height="3"/><path d="M19.788,23.272C19.927,22.865,20,22.436,20,22c0-2.206-1.794-4-4-4s-4,1.794-4,4c0,0.436,0.073,0.865,0.212,1.272  C10.915,23.812,10,25.093,10,26.583V31c0,0.379,0.214,0.725,0.553,0.895L12,32.618V38c0,0.553,0.448,1,1,1h6c0.552,0,1-0.447,1-1  v-5.382l1.447-0.724C21.786,31.725,22,31.379,22,31v-4.417C22,25.093,21.085,23.812,19.788,23.272z M20,30.382l-1.447,0.724  C18.214,31.275,18,31.621,18,32v5h-4v-5c0-0.379-0.214-0.725-0.553-0.895L12,30.382v-3.799C12,25.71,12.71,25,13.583,25h0.195  c0.395,0,0.753-0.232,0.914-0.594c0.161-0.36,0.094-0.782-0.17-1.075C14.185,22.957,14,22.485,14,22c0-1.103,0.897-2,2-2  s2,0.897,2,2c0,0.485-0.185,0.957-0.521,1.331c-0.264,0.293-0.331,0.715-0.17,1.075C17.469,24.768,17.827,25,18.222,25h0.195  C19.29,25,20,25.71,20,26.583V30.382z"/><rect x="15" y="26" width="2" height="3"/><path d="M33.788,39.272C33.927,38.865,34,38.436,34,38c0-2.206-1.794-4-4-4s-4,1.794-4,4c0,0.436,0.073,0.865,0.212,1.272  C24.915,39.812,24,41.093,24,42.583V47c0,0.379,0.214,0.725,0.553,0.895L26,48.618V54c0,0.553,0.448,1,1,1h6c0.552,0,1-0.447,1-1  v-5.382l1.447-0.724C35.786,47.725,36,47.379,36,47v-4.417C36,41.093,35.085,39.812,33.788,39.272z M34,46.382l-1.447,0.724  C32.214,47.275,32,47.621,32,48v5h-4v-5c0-0.379-0.214-0.725-0.553-0.895L26,46.382v-3.799C26,41.71,26.71,41,27.583,41h0.195  c0.395,0,0.753-0.232,0.914-0.594c0.161-0.36,0.094-0.782-0.17-1.075C28.185,38.957,28,38.485,28,38c0-1.103,0.897-2,2-2  s2,0.897,2,2c0,0.485-0.185,0.957-0.521,1.331c-0.264,0.293-0.331,0.715-0.17,1.075C31.469,40.768,31.827,41,32.222,41h0.195  C33.29,41,34,41.71,34,42.583V46.382z"/><rect x="29" y="42" width="2" height="3"/><path d="M32,4C16.561,4,4,16.561,4,32s12.561,28,28,28s28-12.561,28-28S47.439,4,32,4z M32,58C17.664,58,6,46.337,6,32  S17.664,6,32,6s26,11.663,26,26S46.336,58,32,58z"/><path d="M61,2h-6v2h3.586l-6.293,6.293l1.414,1.414L60,5.414V9h2V3C62,2.447,61.552,2,61,2z"/><path d="M60,58.586l-6.293-6.293l-1.414,1.414L58.586,60H55v2h6c0.552,0,1-0.447,1-1v-6h-2V58.586z"/><path d="M3,62h6v-2H5.414l6.293-6.293l-1.414-1.414L4,58.586V55H2v6C2,61.553,2.448,62,3,62z"/><path d="M4,5.414l6.293,6.293l1.414-1.414L5.414,4H9V2H3C2.448,2,2,2.447,2,3v6h2V5.414z"/><rect x="42" y="48" width="2" height="2"/><rect x="21" y="13" width="2" height="2"/><rect x="16" y="45" width="2" height="2"/><rect x="44" y="15" width="2" height="2"/><text x="0" y="79" fill="#000000" font-size="5px" font-weight="bold" font-family="'Helvetica Neue', Helvetica, Arial-Unicode, Arial, Sans-serif">Created by Nithinan Tatah</text><text x="0" y="84" fill="#000000" font-size="5px" font-weight="bold" font-family="'Helvetica Neue', Helvetica, Arial-Unicode, Arial, Sans-serif">from the Noun Project</text></svg>